<svg width="17" height="20" viewBox="0 0 17 20" fill="none" xmlns="http://www.w3.org/2000/svg">
<g clip-path="url(#clip0_830_5833)">
<path d="M16.4089 14.06C15.1339 13.0038 14.4028 11.4601 14.4028 9.82473V7.52075C14.4028 4.61269 12.1985 2.20542 9.34324 1.80214V0.909641C9.34324 0.452648 8.96546 0.083252 8.49998 0.083252C8.03451 0.083252 7.65673 0.452648 7.65673 0.909641V1.80214C4.80063 2.20542 2.59721 4.61269 2.59721 7.52075V9.82473C2.59721 11.4601 1.8661 13.0038 0.583515 14.0666C0.255489 14.3418 0.0674438 14.7417 0.0674438 15.1649C0.0674438 15.9623 0.729398 16.611 1.54314 16.611H15.4568C16.2706 16.611 16.9325 15.9623 16.9325 15.1649C16.9325 14.7417 16.7445 14.3418 16.4089 14.06Z" fill="#D4CFCC"/>
<path d="M8.49997 19.9167C10.0271 19.9167 11.3046 18.8498 11.5981 17.4375H5.40186C5.69531 18.8498 6.97284 19.9167 8.49997 19.9167Z" fill="#D4CFCC"/>
</g>
<defs>
<clipPath id="clip0_830_5833">
<rect width="17" height="19.8333" fill="white" transform="translate(0 0.083252)"/>
</clipPath>
</defs>
</svg>
