<svg width="152" height="38" viewBox="0 0 152 38" fill="none" xmlns="http://www.w3.org/2000/svg">
<g clip-path="url(#clip0_2119_4182)">
<path d="M31.7882 12.0924H24.5546V4.7247C24.5546 3.9179 24.2399 3.14414 23.6798 2.57365C23.1197 2.00316 22.3601 1.68266 21.5679 1.68266H14.3453C13.8133 1.68266 13.3031 1.8979 12.927 2.28104C12.5508 2.66418 12.3395 3.18383 12.3395 3.72567H21.5679C21.6967 3.72567 21.8243 3.75151 21.9433 3.80172C22.0623 3.85192 22.1704 3.92551 22.2615 4.01828C22.3525 4.11105 22.4248 4.22117 22.4741 4.34238C22.5234 4.46359 22.5487 4.59349 22.5487 4.72469V13.0154C22.5487 13.3124 22.6646 13.5973 22.8708 13.8073C23.077 14.0174 23.3567 14.1354 23.6484 14.1354H31.7882C32.0483 14.1354 32.2978 14.2406 32.4817 14.428C32.6657 14.6153 32.769 14.8694 32.769 15.1344V22.445C32.769 22.7099 32.6657 22.964 32.4817 23.1514C32.2978 23.3387 32.0483 23.444 31.7882 23.444H23.6484C23.3568 23.444 23.0771 23.562 22.8708 23.772C22.6646 23.9821 22.5488 24.267 22.5488 24.564V32.8547C22.5488 32.9858 22.5234 33.1158 22.4741 33.237C22.4248 33.3582 22.3526 33.4683 22.2615 33.5611C22.1704 33.6538 22.0623 33.7274 21.9433 33.7776C21.8243 33.8278 21.6967 33.8537 21.5679 33.8537H12.3395C12.3395 34.3955 12.5508 34.9152 12.927 35.2983C13.3032 35.6814 13.8134 35.8967 14.3453 35.8967H21.568C22.3601 35.8967 23.1197 35.5762 23.6799 35.0057C24.24 34.4352 24.5546 33.6614 24.5546 32.8546V25.487H31.7882C32.5803 25.487 33.34 25.1665 33.9001 24.596C34.4602 24.0255 34.7749 23.2517 34.7749 22.4449V15.1344C34.7749 14.7349 34.6976 14.3393 34.5475 13.9702C34.3975 13.6012 34.1775 13.2658 33.9001 12.9833C33.6228 12.7009 33.2935 12.4768 32.9312 12.3239C32.5688 12.171 32.1804 12.0924 31.7882 12.0924Z" fill="#009DDD"/>
<path d="M16.9053 23.7559C16.7924 23.5482 16.2616 23.3067 16.1288 23.3529C15.9671 23.5146 15.8753 23.7317 15.8725 23.9587C16.0415 25.2722 16.7559 26.3423 15.4076 27.3874C13.8876 28.3327 13.8569 25.6 13.2003 26.4949C12.8409 27.072 12.4591 27.6953 11.9096 28.107C10.4517 29.1418 9.25494 26.7501 10.5369 25.9398C11.2925 25.4086 11.4411 25.1226 10.6521 24.5134C9.22803 22.7109 13.0909 23.1787 13.6425 21.9725C10.4595 21.7033 6.88171 21.8255 4.84371 24.4943C4.39512 25.0565 4.4508 25.7386 4.5765 26.3993C4.68945 27.2327 5.03408 28.0566 5.02478 28.8967C4.55901 31.139 6.91369 32.9739 9.03796 32.7719C10.3064 32.6363 11.5561 31.4431 12.8072 32.3108C14.5605 33.7392 17.767 33.1977 18.2102 30.7826C18.8768 28.2561 18.4233 25.9025 16.9053 23.7559Z" fill="#25D366"/>
<path d="M13.4789 20.7824C11.7859 19.0718 7.51807 20.4967 6.96805 19.3567C6.56207 18.5239 7.49479 17.5738 8.35027 17.7958C9.11894 18.1754 9.64977 18.0731 9.47601 17.093C9.45386 16.9252 9.35917 16.5664 9.42809 16.5163C10.1456 16.0011 10.9528 16.6019 11.6365 16.89C12.082 17.1341 12.4957 17.4325 12.8682 17.7785C13.3221 18.1613 13.493 18.7713 14.0221 19.0894C12.957 15.8658 9.7643 12.5455 6.10019 12.931C5.22898 12.9631 4.46175 13.6143 4.44552 14.5169C4.44552 16.5261 1.83811 13.8317 0.294434 16.3823C-0.553651 17.6384 0.626947 18.8662 1.36088 19.8347C1.4354 19.9376 1.52562 20.0974 1.49609 20.1976C1.04362 21.7336 2.6144 23.2661 4.32829 22.956C6.20741 22.479 8.00972 21.6921 9.87629 21.163C11.0577 20.8661 12.3122 21.2237 13.4789 20.7824Z" fill="#009DDD"/>
<path d="M11.1371 13.0576C12.4497 14.0396 13.2747 15.4245 14.0452 16.8266C14.7734 16.4662 13.8514 15.2858 13.7793 14.7055C13.4739 13.7327 13.1656 12.7596 12.907 11.7743C12.5695 9.76231 14.4694 9.06965 15.2317 11.2074C15.5509 12.1326 15.9213 13.0821 15.796 14.0775C15.8137 14.6876 15.5328 15.3378 15.8735 15.8962C16.3131 15.7581 16.5521 15.4336 16.7607 15.0508C18.3324 12.6804 19.2267 9.55226 17.7767 6.90858C17.2758 5.95756 16.0962 6.19513 15.2206 5.92209C14.9694 5.84647 14.7499 5.6932 14.5949 5.48518C13.5779 3.68524 10.5041 4.49304 10.5227 6.52855C10.516 7.149 10.2128 7.55096 9.69526 7.84496C9.13749 8.1749 8.37381 8.48294 8.41486 9.23935C8.36083 11.0234 9.7926 12.1172 11.1371 13.0576Z" fill="#F76D00"/>
<path d="M40.696 22.2141L40.7672 15.6683C40.8034 11.9453 44.2088 10.0959 47.6666 10.0959C51.1005 10.0959 54.5627 11.9453 54.5265 15.6683L54.4553 22.2141C54.4191 25.9373 50.9448 27.811 47.511 27.811C44.0532 27.811 40.6599 25.9373 40.696 22.2141ZM51.7147 22.19L51.7748 15.7413C51.8023 13.7702 49.724 12.9429 47.6589 12.9429C45.597 12.9672 43.5484 13.8191 43.5384 15.7413L43.4783 22.19C43.4586 24.0392 45.4811 24.9881 47.5462 24.9881C49.6352 24.9882 51.695 24.0392 51.7147 22.19Z" fill="#25D366"/>
<path d="M66.7736 19.1238L66.7612 27.5677H64.1438L64.1724 19.2455C64.1811 17.8584 62.9817 17.323 61.7331 17.323C61.0176 17.3153 60.3129 17.5 59.6908 17.8583L59.6534 27.5677H57.012L57.1119 10.3392H59.7293L59.697 15.1818C60.4589 14.8823 61.2681 14.7256 62.0852 14.7194C64.4832 14.6951 66.7797 16.082 66.7736 19.1238Z" fill="#25D366"/>
<path d="M69.1292 23.5041L69.1745 19.1239C69.2173 15.8143 71.714 14.7194 74.4034 14.7194C75.9162 14.7194 77.6823 15.1817 79.0177 15.8387L78.9593 27.5677H76.8222L76.4853 26.4726C76.1178 26.903 75.6613 27.246 75.1482 27.4773C74.6351 27.7086 74.078 27.8225 73.5165 27.811C71.3074 27.811 69.0988 26.1808 69.1292 23.5041ZM76.3481 24.526L76.4174 17.4204C75.8651 17.1372 75.2528 16.9952 74.6338 17.0067C73.2379 16.9823 71.8055 17.5908 71.7888 19.0993L71.7467 23.504C71.7458 24.7692 72.7499 25.2802 73.8816 25.3047C74.7973 25.3289 75.7881 25.0126 76.3481 24.526Z" fill="#25D366"/>
<path d="M81.8143 15.7413C83.203 15.0646 84.7249 14.7153 86.2657 14.7194C89.0096 14.7681 91.5301 16.0334 91.5161 19.1968L91.4699 27.5677H88.8525L88.8907 19.3185C88.8242 17.9071 87.5223 17.323 86.2496 17.323C85.5773 17.323 84.9002 17.469 84.4346 17.7611L84.3862 27.5677H81.7447L81.8143 15.7413Z" fill="#25D366"/>
<path d="M93.8618 23.5041L93.9072 19.1239C93.9501 15.8143 96.4468 14.7194 99.1362 14.7194C100.649 14.7194 102.415 15.1817 103.75 15.8387L103.692 27.5677H101.555L101.218 26.4726C100.85 26.903 100.394 27.246 99.8809 27.4773C99.3678 27.7086 98.8107 27.8225 98.2493 27.811C96.04 27.811 93.8316 26.1808 93.8618 23.5041ZM101.081 24.526L101.15 17.4204C100.598 17.1372 99.9854 16.9952 99.3665 17.0067C97.9705 16.9823 96.5381 17.5908 96.5214 19.0993L96.4793 23.504C96.4785 24.7692 97.4826 25.2802 98.6144 25.3047C99.53 25.3289 100.521 25.0126 101.081 24.526Z" fill="#25D366"/>
<path d="M106.793 10.3392H112.893C116.206 10.3392 119.235 11.994 119.229 15.7658L119.172 22.2386C119.163 25.9859 116.106 27.5677 112.793 27.5677H106.693L106.793 10.3392ZM112.804 24.745C114.701 24.745 116.384 24.0392 116.387 22.2386L116.443 15.7658C116.442 13.9407 114.779 13.1621 112.882 13.1621H109.544L109.466 24.745H112.804Z" fill="#009DDD"/>
<path d="M121.398 23.4552L121.419 19.0752C121.444 16.1794 123.92 14.7437 126.366 14.7194C128.771 14.7437 131.242 16.1794 131.216 19.0752L131.195 23.4552C131.176 26.3996 128.694 27.7867 126.296 27.811C123.843 27.7867 121.379 26.3997 121.398 23.4552ZM128.561 23.3336L128.575 19.0751C128.585 17.8828 127.383 17.323 126.35 17.323C125.246 17.323 124.071 17.8828 124.06 19.0751L124.047 23.3336C124.036 24.526 125.231 25.2073 126.336 25.2073C127.368 25.2073 128.551 24.526 128.561 23.3336Z" fill="#009DDD"/>
<path d="M133.322 23.3822L133.35 19.0509C133.372 16.1309 135.851 14.7194 138.276 14.7194C140.221 14.7194 142.429 15.6198 143.084 18.0288L140.685 18.9535C140.369 17.8341 139.32 17.3475 138.284 17.323C137.131 17.323 135.987 17.9315 135.988 19.0264L135.943 23.4066C135.946 24.526 137.048 25.2317 138.246 25.2073C139.251 25.1829 140.323 24.5747 140.635 23.4796L143.051 24.5016C142.361 26.9107 140.103 27.811 138.158 27.811C135.732 27.811 133.3 26.3022 133.322 23.3822Z" fill="#009DDD"/>
<path d="M144.366 15.5351V12.2987H143.059V11.5808H146.543V12.2987H145.236V15.5351H144.366ZM146.979 15.5351V11.5808H147.703L149.038 14.0094L150.367 11.5808H151.079V15.5351H150.288V13.1232L149.268 14.9405H148.78L147.764 13.1401V15.5351H146.979Z" fill="#958070"/>
</g>
<defs>
<clipPath id="clip0_2119_4182">
<rect width="152" height="37.5793" fill="white"/>
</clipPath>
</defs>
</svg>
