<svg id="Layer_1" data-name="Layer 1" xmlns="http://www.w3.org/2000/svg" viewBox="0 0 308.33 240.73"><defs><style>.cls-1{fill:#0393da;}</style></defs><path class="cls-1" d="M100.92,138.91c-3.73-4.55-6.85-8.32-9.93-12.13-5.08-6.28-5.62-13.44-1.61-20s11-7.2,17.67-4.6a156.57,156.57,0,0,1,72.24,56.64c5.69,8.07,4.6,16.23-1.11,23.68a45.62,45.62,0,0,1-10.52,10.33c-26.46,17.45-56.31,21.4-87.15,21.45,20.39-11.83,43.66-18.71,63-34.84a9.19,9.19,0,0,0-.45-14.41l-2.35-1.75a8.63,8.63,0,0,0-10.09-.13c-42,29.37-84.66,56-130.59,77.53Z"/><path class="cls-1" d="M78.44,83.48c-5.24-24.7-8-49.21,10-70,15-17.26,43.18-17.94,63.71-1.77a97.06,97.06,0,0,1,17,17.8c5.67,7.52,5.35,16.78.67,21.36S156.56,55,148.67,49.1C142.3,44.33,136.32,39,130.28,33.82c-11.7-10.09-25.85-9.72-34,3.63-7.27,12-11.06,26.05-16.27,39.24A47.61,47.61,0,0,0,78.44,83.48Z"/><path class="cls-1" d="M308.27,59.47c1.51,28.72-22.88,63.23-47.76,70.2-14.93,4.19-29.94-1-38.92-15.9-5.38-8.93-8.3-19.54-11.18-29.72-1.95-6.89,3.3-15.43,9.09-16.46,7.58-1.34,12.6,2.49,15.52,9.3,2.81,6.56,5.23,13.3,8.34,19.72,6.6,13.62,17.1,17.21,28.56,7.38C283,94.5,291.81,82.34,301.37,71.13,303.78,68.31,305.24,64.68,308.27,59.47Z"/><path class="cls-1" d="M244.74,36a26.72,26.72,0,0,1-27.08,26.38c-14.67,0-26.94-12.24-26.86-26.74C190.89,20.39,203,8.72,218.45,9.07,233.69,9.41,244.83,20.82,244.74,36Z"/></svg>