<svg width="39" height="34" viewBox="0 0 39 34" fill="none" xmlns="http://www.w3.org/2000/svg">
<g clip-path="url(#clip0_2119_4474)">
<path d="M30.9132 9.98734H24.0038V3.2055C24.0038 2.46285 23.7032 1.75061 23.1682 1.22548C22.6332 0.70035 21.9075 0.405334 21.1509 0.405334H14.2519C13.7438 0.405334 13.2564 0.603466 12.8971 0.956141C12.5378 1.30882 12.3359 1.78715 12.3359 2.28591H21.1509C21.2739 2.28591 21.3958 2.30969 21.5094 2.3559C21.6231 2.40211 21.7264 2.46986 21.8134 2.55525C21.9004 2.64064 21.9694 2.74201 22.0165 2.85358C22.0635 2.96514 22.0878 3.08472 22.0878 3.20548V10.8369C22.0878 11.1104 22.1984 11.3726 22.3954 11.5659C22.5924 11.7593 22.8596 11.8679 23.1381 11.8679H30.9132C31.1617 11.8679 31.4 11.9648 31.5757 12.1372C31.7514 12.3097 31.8501 12.5436 31.8501 12.7875V19.5168C31.8501 19.7607 31.7514 19.9946 31.5757 20.167C31.4 20.3395 31.1617 20.4364 30.9132 20.4364H23.1382C22.8596 20.4364 22.5924 20.545 22.3954 20.7383C22.1985 20.9317 22.0878 21.1939 22.0878 21.4673V29.0988C22.0878 29.2195 22.0636 29.3391 22.0165 29.4507C21.9694 29.5622 21.9004 29.6636 21.8134 29.749C21.7264 29.8344 21.6231 29.9021 21.5094 29.9483C21.3958 29.9946 21.2739 30.0183 21.1509 30.0183H12.336C12.336 30.5171 12.5378 30.9954 12.8971 31.3481C13.2564 31.7008 13.7438 31.8989 14.2519 31.8989H21.1509C21.9076 31.8989 22.6332 31.6039 23.1682 31.0788C23.7032 30.5536 24.0038 29.8414 24.0038 29.0988V22.3169H30.9133C31.6699 22.3169 32.3955 22.0219 32.9306 21.4968C33.4656 20.9716 33.7661 20.2594 33.7661 19.5168V12.7875C33.7661 12.4198 33.6923 12.0556 33.549 11.7159C33.4056 11.3762 33.1955 11.0675 32.9305 10.8075C32.6656 10.5475 32.3511 10.3412 32.005 10.2005C31.6589 10.0598 31.2879 9.98734 30.9132 9.98734Z" fill="#009DDD"/>
<path d="M16.307 20.5756C16.2009 20.3814 15.7024 20.1554 15.5776 20.1986C15.4257 20.3499 15.3395 20.553 15.3369 20.7654C15.4956 21.9943 16.1667 22.9955 14.9002 23.9733C13.4725 24.8577 13.4437 22.301 12.8269 23.1383C12.4893 23.6782 12.1307 24.2614 11.6145 24.6467C10.2452 25.6148 9.12103 23.3771 10.3252 22.619C11.0349 22.1219 11.1745 21.8544 10.4334 21.2844C9.09576 19.5979 12.7241 20.0356 13.2422 18.9071C10.2524 18.6552 6.89186 18.7695 4.97757 21.2665C4.55622 21.7925 4.60852 22.4307 4.72659 23.0488C4.83269 23.8286 5.15639 24.5994 5.14765 25.3855C4.71016 27.4834 6.9219 29.2001 8.91722 29.0111C10.1086 28.8843 11.2825 27.7679 12.4576 28.5797C14.1045 29.9162 17.1164 29.4096 17.5327 27.15C18.1588 24.7861 17.7328 22.584 16.307 20.5756Z" fill="#25D366"/>
<path d="M12.9824 17.8914C11.369 16.2975 7.30202 17.6252 6.77788 16.563C6.391 15.787 7.27983 14.9018 8.09506 15.1086C8.82757 15.4623 9.33342 15.367 9.16783 14.4537C9.14673 14.2973 9.05649 13.963 9.12216 13.9163C9.80591 13.4363 10.5751 13.9962 11.2266 14.2646C11.6512 14.492 12.0454 14.7701 12.4005 15.0924C12.833 15.4491 12.9958 16.0175 13.5001 16.3139C12.485 13.3103 9.44256 10.2164 5.95085 10.5757C5.12064 10.6056 4.38951 11.2123 4.37404 12.0534C4.37404 13.9255 1.88932 11.4149 0.418275 13.7915C-0.389905 14.9619 0.735143 16.106 1.43454 17.0084C1.50556 17.1043 1.59153 17.2532 1.56339 17.3465C1.13221 18.7778 2.62908 20.2057 4.26233 19.9167C6.05303 19.4723 7.77054 18.7391 9.54928 18.2461C10.6751 17.9694 11.8705 18.3026 12.9824 17.8914Z" fill="#009DDD"/>
<path d="M10.8964 10.9627C12.1156 11.8758 12.8819 13.1636 13.5976 14.4673C14.2741 14.1321 13.4176 13.0346 13.3507 12.495C13.0669 11.5904 12.7806 10.6855 12.5404 9.76938C12.2269 7.89854 13.9917 7.25447 14.6998 9.24226C14.9962 10.1025 15.3403 10.9855 15.2239 11.911C15.2404 12.4784 14.9795 13.083 15.296 13.6022C15.7043 13.4737 15.9263 13.172 16.1201 12.8161C17.58 10.612 18.4106 7.70322 17.0638 5.24498C16.5985 4.36067 15.5028 4.58158 14.6895 4.32769C14.4561 4.25737 14.2522 4.11486 14.1082 3.92142C13.1636 2.24774 10.3083 2.99888 10.3256 4.89162C10.3194 5.46854 10.0378 5.8423 9.55704 6.11568C9.03894 6.42248 8.32956 6.7089 8.36769 7.41226C8.31751 9.07114 9.64745 10.0883 10.8964 10.9627Z" fill="#F76D00"/>
</g>
<path d="M30.434 32V28.538H29.036V27.77H32.762V28.538H31.364V32H30.434ZM33.229 32V27.77H34.003L35.431 30.368L36.853 27.77H37.615V32H36.769V29.42L35.677 31.364H35.155L34.069 29.438V32H33.229Z" fill="#958070"/>
<defs>
<clipPath id="clip0_2119_4474">
<rect width="34" height="32" fill="white"/>
</clipPath>
</defs>
</svg>
