<svg width="17" height="23" viewBox="0 0 17 23" fill="none" xmlns="http://www.w3.org/2000/svg">
<g clip-path="url(#clip0_824_5168)">
<path d="M0 1.4375C0 0.642383 0.633073 0 1.41667 0H15.5833C16.3669 0 17 0.642383 17 1.4375V2.875C17 3.67012 16.3669 4.3125 15.5833 4.3125H1.41667C0.633073 4.3125 0 3.67012 0 2.875V1.4375ZM1.41667 5.75H15.5833V20.125C15.5833 21.7107 14.3128 23 12.75 23H4.25C2.68724 23 1.41667 21.7107 1.41667 20.125V18.6875H6.375C6.76458 18.6875 7.08333 18.3641 7.08333 17.9688C7.08333 17.5734 6.76458 17.25 6.375 17.25H1.41667V14.375H6.375C6.76458 14.375 7.08333 14.0516 7.08333 13.6562C7.08333 13.2609 6.76458 12.9375 6.375 12.9375H1.41667V10.0625H6.375C6.76458 10.0625 7.08333 9.73906 7.08333 9.34375C7.08333 8.94844 6.76458 8.625 6.375 8.625H1.41667V5.75Z" fill="#958070"/>
</g>
<defs>
<clipPath id="clip0_824_5168">
<rect width="17" height="23" fill="white"/>
</clipPath>
</defs>
</svg>
