<svg width="20" height="20" viewBox="0 0 20 20" fill="none" xmlns="http://www.w3.org/2000/svg">
<path d="M0 3.75C0 2.37109 1.12109 1.25 2.5 1.25H17.5C18.8789 1.25 20 2.37109 20 3.75V16.25C20 17.6289 18.8789 18.75 17.5 18.75H2.5C1.12109 18.75 0 17.6289 0 16.25V3.75ZM2.5 5C2.5 5.33152 2.6317 5.64946 2.86612 5.88388C3.10054 6.1183 3.41848 6.25 3.75 6.25C4.08152 6.25 4.39946 6.1183 4.63388 5.88388C4.8683 5.64946 5 5.33152 5 5C5 4.66848 4.8683 4.35054 4.63388 4.11612C4.39946 3.8817 4.08152 3.75 3.75 3.75C3.41848 3.75 3.10054 3.8817 2.86612 4.11612C2.6317 4.35054 2.5 4.66848 2.5 5ZM17.5 5C17.5 4.48047 17.082 4.0625 16.5625 4.0625H7.1875C6.66797 4.0625 6.25 4.48047 6.25 5C6.25 5.51953 6.66797 5.9375 7.1875 5.9375H16.5625C17.082 5.9375 17.5 5.51953 17.5 5Z" fill="#958070"/>
</svg>
