<svg width="17" height="20" viewBox="0 0 17 20" fill="none" xmlns="http://www.w3.org/2000/svg">
<path d="M3.64287 0C2.30336 0 1.21429 1.12109 1.21429 2.5V11.25H5.46429C5.69577 11.25 5.90447 11.3828 6.00693 11.5938L6.67858 12.9766L8.56452 9.09375C8.66697 8.88281 8.87947 8.75 9.10715 8.75C9.33483 8.75 9.54733 8.88281 9.64979 9.09375L10.6971 11.25H13.3572C13.6911 11.25 13.9643 11.5312 13.9643 11.875C13.9643 12.2188 13.6911 12.5 13.3572 12.5H10.3214C10.09 12.5 9.88126 12.3672 9.7788 12.1562L9.10715 10.7734L7.22121 14.6562C7.11876 14.8672 6.90626 15 6.67858 15C6.4509 15 6.2384 14.8672 6.13595 14.6562L5.08863 12.5H1.21429V17.5C1.21429 18.8789 2.30336 20 3.64287 20H13.3572C14.6967 20 15.7857 18.8789 15.7857 17.5V6.25H10.9286C10.2569 6.25 9.71429 5.69141 9.71429 5V0H3.64287ZM10.9286 0V5H15.7857L10.9286 0Z" fill="#958070"/>
</svg>
