<svg width="22" height="22" viewBox="0 0 22 22" fill="none" xmlns="http://www.w3.org/2000/svg">
<path d="M7.90625 2.0625H14.0938C14.2828 2.0625 14.4375 2.21719 14.4375 2.40625V4.125H7.5625V2.40625C7.5625 2.21719 7.71719 2.0625 7.90625 2.0625ZM5.5 2.40625V4.125H2.75C1.2332 4.125 0 5.3582 0 6.875V17.875C0 19.3918 1.2332 20.625 2.75 20.625H19.25C20.7668 20.625 22 19.3918 22 17.875V6.875C22 5.3582 20.7668 4.125 19.25 4.125H16.5V2.40625C16.5 1.07852 15.4215 0 14.0938 0H7.90625C6.57852 0 5.5 1.07852 5.5 2.40625ZM9.625 8.9375C9.625 8.55937 9.93437 8.25 10.3125 8.25H11.6875C12.0656 8.25 12.375 8.55937 12.375 8.9375V11H14.4375C14.8156 11 15.125 11.3094 15.125 11.6875V13.0625C15.125 13.4406 14.8156 13.75 14.4375 13.75H12.375V15.8125C12.375 16.1906 12.0656 16.5 11.6875 16.5H10.3125C9.93437 16.5 9.625 16.1906 9.625 15.8125V13.75H7.5625C7.18437 13.75 6.875 13.4406 6.875 13.0625V11.6875C6.875 11.3094 7.18437 11 7.5625 11H9.625V8.9375Z" fill="#958070"/>
</svg>
