<svg width="17" height="17" viewBox="0 0 17 17" fill="none" xmlns="http://www.w3.org/2000/svg">
<g clip-path="url(#clip0_830_5840)">
<path d="M0 2.125C0 0.95293 0.95293 0 2.125 0H14.875C16.0471 0 17 0.95293 17 2.125V11.6875C17 12.8596 16.0471 13.8125 14.875 13.8125H10.2697L6.1625 16.8937C6.00313 17.0133 5.7873 17.0332 5.60469 16.9436C5.42207 16.8539 5.3125 16.6713 5.3125 16.4688V13.8125H2.125C0.95293 13.8125 0 12.8596 0 11.6875V2.125ZM5.04688 4.78125C4.60527 4.78125 4.25 5.13652 4.25 5.57812C4.25 6.01973 4.60527 6.375 5.04688 6.375H11.9531C12.3947 6.375 12.75 6.01973 12.75 5.57812C12.75 5.13652 12.3947 4.78125 11.9531 4.78125H5.04688ZM5.04688 7.96875C4.60527 7.96875 4.25 8.32402 4.25 8.76562C4.25 9.20723 4.60527 9.5625 5.04688 9.5625H8.76562C9.20723 9.5625 9.5625 9.20723 9.5625 8.76562C9.5625 8.32402 9.20723 7.96875 8.76562 7.96875H5.04688Z" fill="#D4CFCC"/>
</g>
<defs>
<clipPath id="clip0_830_5840">
<rect width="17" height="17" fill="white"/>
</clipPath>
</defs>
</svg>
