<svg width="25" height="20" viewBox="0 0 25 20" fill="none" xmlns="http://www.w3.org/2000/svg">
<g clip-path="url(#clip0_835_8656)">
<path d="M11.25 0H6.25H5C4.30859 0 3.75 0.558594 3.75 1.25C3.75 1.94141 4.30859 2.5 5 2.5V7.6875C5 8.14844 4.87109 8.60547 4.62891 8.99609L0.402344 15.8672C0.140625 16.2969 0 16.7852 0 17.2891C0 18.7852 1.21484 20 2.71094 20H14.7891C15.2031 20 15.5977 19.9062 15.9492 19.7422C15.8398 19.5 15.7852 19.2383 15.7852 18.9727V18.9375C15.0977 19.3164 14.1641 19.2539 13.5508 18.5977C13.1914 18.2109 12.8711 17.7812 12.5977 17.3086C12.3242 16.8359 12.1094 16.3438 11.957 15.8398C11.6953 14.9961 12.0898 14.1719 12.7383 13.7578L12.7305 13.75H4.64453L6.75781 10.3086C7.24219 9.51953 7.5 8.61328 7.5 7.6875V2.5H10V7.6875C10 8.61328 10.2578 9.51953 10.7422 10.3086L11.875 12.1484C11.8789 11.9922 11.9062 11.832 11.9531 11.6719C12.1094 11.168 12.3203 10.6758 12.5938 10.2031C12.7539 9.92578 12.9336 9.66016 13.125 9.41016L12.8711 8.99609C12.6289 8.60156 12.5 8.14844 12.5 7.6875V2.5C13.1914 2.5 13.75 1.94141 13.75 1.25C13.75 0.558594 13.1914 0 12.5 0H11.25ZM17.0312 8.52344V9.20312C17.0312 9.51172 16.8398 9.78906 16.5742 9.94141C16.3086 10.0938 15.9805 10.1172 15.7148 9.96484L15.1836 9.66016C14.9453 9.52344 14.6484 9.55469 14.4609 9.75391C14.168 10.0703 13.9023 10.4258 13.6758 10.8164C13.4492 11.207 13.2734 11.6133 13.1484 12.0273C13.0664 12.2891 13.1914 12.5625 13.4297 12.6992L13.9766 13.0156C14.2305 13.1641 14.3711 13.4453 14.3711 13.7422C14.3711 14.0391 14.2344 14.3203 13.9766 14.4688L13.4297 14.7852C13.1914 14.9219 13.0703 15.1953 13.1484 15.457C13.2773 15.8711 13.4531 16.2773 13.6758 16.668C13.8984 17.0586 14.1641 17.4141 14.4609 17.7305C14.6484 17.9297 14.9492 17.9609 15.1836 17.8242L15.7109 17.5195C15.9766 17.3672 16.3047 17.3906 16.5703 17.543C16.8398 17.6953 17.0273 17.9727 17.0273 18.2812V18.9609C17.0273 19.2344 17.2031 19.4805 17.4688 19.5391C17.8789 19.6328 18.3086 19.6836 18.7461 19.6836C19.1836 19.6836 19.6133 19.6328 20.0234 19.5391C20.2891 19.4805 20.4648 19.2344 20.4648 18.9609V18.2617C20.4648 17.957 20.6523 17.6836 20.918 17.5312C21.1797 17.3789 21.5078 17.3555 21.7695 17.5078L22.3086 17.8164C22.5469 17.9531 22.8437 17.9219 23.0312 17.7227C23.3281 17.4062 23.5898 17.0508 23.8164 16.6602C24.043 16.2695 24.2188 15.8633 24.3438 15.4492C24.4258 15.1875 24.3008 14.9141 24.0625 14.7773L23.5 14.4531C23.2461 14.3086 23.1094 14.0273 23.1094 13.7344C23.1094 13.4414 23.2461 13.1602 23.5 13.0156L24.0625 12.6914C24.3008 12.5547 24.4219 12.2812 24.3438 12.0195C24.2148 11.6055 24.0391 11.1992 23.8164 10.8086C23.5938 10.418 23.3281 10.0625 23.0312 9.74609C22.8437 9.54688 22.543 9.51562 22.3086 9.65234L21.7695 9.96094C21.5078 10.1133 21.1797 10.0898 20.918 9.9375C20.6523 9.78516 20.4648 9.51172 20.4648 9.20703V8.52344C20.4648 8.25 20.2891 8.00391 20.0234 7.94531C19.6133 7.85156 19.1836 7.80078 18.7461 7.80078C18.3086 7.80078 17.8789 7.85156 17.4688 7.94531C17.2031 8.00391 17.0273 8.25 17.0273 8.52344H17.0312ZM16.8711 13.7383C16.8595 13.4846 16.8995 13.2312 16.9886 12.9934C17.0777 12.7556 17.2141 12.5383 17.3895 12.3547C17.5649 12.1711 17.7758 12.0249 18.0093 11.9251C18.2428 11.8252 18.4941 11.7737 18.748 11.7737C19.002 11.7737 19.2533 11.8252 19.4868 11.9251C19.7203 12.0249 19.9311 12.1711 20.1066 12.3547C20.282 12.5383 20.4184 12.7556 20.5075 12.9934C20.5966 13.2312 20.6366 13.4846 20.625 13.7383C20.6366 13.992 20.5966 14.2454 20.5075 14.4832C20.4184 14.721 20.282 14.9383 20.1066 15.1219C19.9311 15.3055 19.7203 15.4517 19.4868 15.5515C19.2533 15.6514 19.002 15.7028 18.748 15.7028C18.4941 15.7028 18.2428 15.6514 18.0093 15.5515C17.7758 15.4517 17.5649 15.3055 17.3895 15.1219C17.2141 14.9383 17.0777 14.721 16.9886 14.4832C16.8995 14.2454 16.8595 13.992 16.8711 13.7383Z" fill="#958070"/>
</g>
<defs>
<clipPath id="clip0_835_8656">
<rect width="25" height="20" fill="white"/>
</clipPath>
</defs>
</svg>
