<svg width="19" height="21" viewBox="0 0 19 21" fill="none" xmlns="http://www.w3.org/2000/svg">
<g clip-path="url(#clip0_1599_358)">
<path d="M0.486739 10.4328C0.486739 10.0817 0.786739 9.79432 1.15971 9.79432H16.4552L10.7512 3.83619C10.5016 3.57556 10.5219 3.17134 10.7965 2.93469C10.9259 2.82654 11.0881 2.77067 11.2502 2.77067C11.4329 2.77067 11.6155 2.84051 11.7481 2.98019L18.4738 10.0038C18.7069 10.247 18.7069 10.6188 18.4738 10.8618L11.7481 17.8855C11.4971 18.1474 11.0715 18.1648 10.7974 17.9291C10.5228 17.6922 10.5025 17.2882 10.7521 17.0276L16.4552 11.0713H1.15931C0.786738 11.0713 0.486739 10.784 0.486739 10.4328Z" fill="white"/>
</g>
<defs>
<clipPath id="clip0_1599_358">
<rect width="18.1622" height="20.4324" fill="white" transform="matrix(-1 0 0 -1 18.6487 20.6487)"/>
</clipPath>
</defs>
</svg>
