<svg width="14" height="16" viewBox="0 0 14 16" fill="none" xmlns="http://www.w3.org/2000/svg">
<g clip-path="url(#clip0_1343_6767)">
<path d="M11.3812 2.61855C10.6187 1.85605 9.38122 1.85605 8.61872 2.61855L2.86873 8.36855C1.5531 9.68418 1.5531 11.8154 2.86873 13.1311C4.18435 14.4467 6.3156 14.4467 7.63123 13.1311L12.3812 8.38105C12.7219 8.04043 13.2781 8.04043 13.6187 8.38105C13.9593 8.72168 13.9593 9.27793 13.6187 9.61855L8.86872 14.3686C6.86872 16.3686 3.63123 16.3686 1.63123 14.3686C-0.368774 12.3686 -0.368774 9.13105 1.63123 7.13105L7.38123 1.38105C8.8281 -0.0658203 11.1719 -0.0658203 12.6187 1.38105C14.0656 2.82793 14.0656 5.17168 12.6187 6.61855L7.11873 12.1186C6.22498 13.0123 4.77498 13.0123 3.88123 12.1186C2.98748 11.2248 2.98748 9.77481 3.88123 8.88105L8.38123 4.38105C8.72185 4.04043 9.2781 4.04043 9.61872 4.38105C9.95935 4.72168 9.95935 5.27793 9.61872 5.61855L5.11873 10.1186C4.90935 10.3279 4.90935 10.6717 5.11873 10.8811C5.3281 11.0904 5.67185 11.0904 5.88123 10.8811L11.3812 5.38105C12.1437 4.61855 12.1437 3.38105 11.3812 2.61855Z" fill="#F76D00"/>
</g>
<defs>
<clipPath id="clip0_1343_6767">
<rect width="14" height="16" fill="white"/>
</clipPath>
</defs>
</svg>
