<svg width="16" height="16" viewBox="0 0 16 16" fill="none" xmlns="http://www.w3.org/2000/svg">
<path d="M1.5 1.75C1.5 1.33437 1.16562 1 0.75 1C0.334375 1 0 1.33437 0 1.75V12.75C0 13.9937 1.00625 15 2.25 15H15.25C15.6656 15 16 14.6656 16 14.25C16 13.8344 15.6656 13.5 15.25 13.5H2.25C1.83438 13.5 1.5 13.1656 1.5 12.75V1.75ZM10 4.75C10 5.16563 10.3344 5.5 10.75 5.5H12.4406L9.5 8.44063L7.03125 5.97188C6.7375 5.67813 6.2625 5.67813 5.97188 5.97188L3.47187 8.47188C3.17812 8.76562 3.17812 9.24063 3.47187 9.53125C3.76562 9.82187 4.24062 9.825 4.53125 9.53125L6.5 7.5625L8.96875 10.0312C9.2625 10.325 9.7375 10.325 10.0281 10.0312L13.4969 6.5625V8.25C13.4969 8.66563 13.8313 9 14.2469 9C14.6625 9 14.9969 8.66563 14.9969 8.25V4.75C14.9969 4.33437 14.6625 4 14.2469 4H10.75C10.3344 4 10 4.33437 10 4.75Z" fill="white"/>
</svg>
