<svg width="78" height="20" viewBox="0 0 78 20" fill="none" xmlns="http://www.w3.org/2000/svg">
<path opacity="0.3" d="M1.40112 14.1368L8.11541 17.439C9.24383 17.994 10.495 18.2155 11.7345 18.0798C12.9739 17.9441 14.1546 17.4562 15.1496 16.6688L19.574 13.1671C20.7031 12.2735 22.0679 11.7684 23.4812 11.721C24.8946 11.6736 26.2873 12.0862 27.4684 12.9023V12.9023C28.254 13.445 29.1376 13.8123 30.0643 13.9811C30.9909 14.15 31.9407 14.1169 32.8546 13.8838C33.7685 13.6508 34.6269 13.2228 35.3765 12.6265C36.126 12.0302 36.7506 11.2784 37.2113 10.4178L39.7744 5.63061C40.3333 4.5868 41.1316 3.70593 42.0968 3.06786C43.0621 2.4298 44.1639 2.05473 45.3022 1.97667C46.4406 1.89861 47.5795 2.12002 48.6156 2.62084C49.6518 3.12165 50.5525 3.88602 51.236 4.84463L52.8096 7.05157C53.4479 7.94665 54.2761 8.67327 55.2285 9.17376C56.181 9.67425 57.2314 9.93484 58.2966 9.93484H62.9705C64.3345 9.93484 65.6674 10.362 66.7987 11.1617L76.5987 18.0888" stroke="#D4CFCC" stroke-width="2" stroke-linecap="round" stroke-linejoin="round"/>
<path d="M13.2091 17.8686C13.2091 18.2642 13.0974 18.6508 12.888 18.9797C12.6786 19.3086 12.381 19.565 12.0328 19.7163C11.6847 19.8677 11.3015 19.9073 10.9319 19.8302C10.5623 19.753 10.2228 19.5625 9.95629 19.2828C9.68981 19.0031 9.50833 18.6467 9.43481 18.2588C9.36128 17.8708 9.39902 17.4687 9.54324 17.1032C9.68746 16.7378 9.93169 16.4254 10.245 16.2057C10.5584 15.9859 10.9268 15.8686 11.3037 15.8686C11.809 15.8686 12.2937 16.0793 12.651 16.4544C13.0084 16.8294 13.2091 17.3382 13.2091 17.8686Z" fill="#D4CFCC"/>
<path d="M24.2523 11.8412C24.2523 12.2367 24.1406 12.6234 23.9312 12.9523C23.7218 13.2812 23.4242 13.5376 23.0761 13.6889C22.7279 13.8403 22.3448 13.8799 21.9751 13.8028C21.6055 13.7256 21.266 13.5351 20.9995 13.2554C20.733 12.9757 20.5515 12.6193 20.478 12.2314C20.4045 11.8434 20.4422 11.4413 20.5865 11.0758C20.7307 10.7104 20.9749 10.398 21.2883 10.1782C21.6016 9.95848 21.97 9.84119 22.3469 9.84119C22.8522 9.84119 23.3369 10.0519 23.6942 10.427C24.0516 10.802 24.2523 11.3108 24.2523 11.8412Z" fill="#D4CFCC"/>
<path d="M35.0231 13.5194C35.0231 13.915 34.9114 14.3016 34.702 14.6305C34.4926 14.9594 34.195 15.2158 33.8469 15.3672C33.4987 15.5186 33.1156 15.5582 32.746 15.4811C32.3763 15.4039 32.0368 15.2134 31.7703 14.9338C31.5038 14.6541 31.3223 14.2977 31.2488 13.9098C31.1752 13.5218 31.213 13.1197 31.3572 12.7542C31.5014 12.3888 31.7456 12.0764 32.0589 11.8566C32.3722 11.6368 32.7406 11.5195 33.1175 11.5195C33.3677 11.5195 33.6155 11.5712 33.8467 11.6717C34.0779 11.7722 34.288 11.9195 34.4649 12.1052C34.6419 12.2909 34.7822 12.5114 34.878 12.754C34.9738 12.9967 35.0231 13.2568 35.0231 13.5194Z" fill="#D4CFCC"/>
<path d="M45.8744 1.9998C45.8745 2.39537 45.7627 2.78207 45.5534 3.11099C45.344 3.43992 45.0465 3.69629 44.6983 3.8477C44.3501 3.99911 43.967 4.03874 43.5973 3.96159C43.2277 3.88445 42.8882 3.69398 42.6216 3.41428C42.3551 3.13459 42.1736 2.77822 42.1001 2.39025C42.0266 2.00229 42.0643 1.60014 42.2085 1.23468C42.3527 0.869216 42.597 0.556847 42.9103 0.337075C43.2237 0.117303 43.5921 2.05619e-09 43.969 0C44.4743 -2.75702e-09 44.9589 0.210686 45.3163 0.585714C45.6736 0.960743 45.8744 1.4694 45.8744 1.9998Z" fill="#D4CFCC"/>
<path d="M56.6784 9.04485C56.6784 9.44042 56.5667 9.8271 56.3573 10.156C56.1479 10.4849 55.8503 10.7413 55.5021 10.8927C55.154 11.044 54.7708 11.0837 54.4012 11.0065C54.0316 10.9293 53.6921 10.7389 53.4256 10.4592C53.1591 10.1795 52.9776 9.82309 52.904 9.43513C52.8305 9.04716 52.8683 8.64503 53.0125 8.27957C53.1567 7.91411 53.4009 7.60175 53.7143 7.38199C54.0276 7.16222 54.396 7.04492 54.7729 7.04492C55.2783 7.04492 55.7629 7.25563 56.1203 7.63068C56.4776 8.00574 56.6784 8.51443 56.6784 9.04485Z" fill="#D4CFCC"/>
<path d="M67.4237 10.553C67.4237 10.9485 67.312 11.3352 67.1026 11.6641C66.8932 11.993 66.5956 12.2494 66.2474 12.4007C65.8993 12.5521 65.5161 12.5917 65.1465 12.5145C64.7769 12.4374 64.4374 12.2469 64.1709 11.9672C63.9044 11.6875 63.7229 11.3311 63.6494 10.9432C63.5759 10.5552 63.6136 10.1531 63.7578 9.78761C63.9021 9.42216 64.1463 9.1098 64.4596 8.89004C64.773 8.67028 65.1414 8.55298 65.5182 8.55298C66.0236 8.55298 66.5083 8.76369 66.8656 9.13877C67.223 9.51384 67.4237 10.0225 67.4237 10.553Z" fill="#D4CFCC"/>
</svg>
