<svg width="15" height="16" viewBox="0 0 15 16" fill="none" xmlns="http://www.w3.org/2000/svg">
<path d="M7.5 5.12186L6.50684 4.06248L6.15527 3.68748C5.51953 3.00936 4.61719 2.69998 3.73242 2.85936C2.39062 3.09686 1.40625 4.33436 1.40625 5.78436V5.96561C1.40625 6.71248 1.65234 7.43123 2.09473 7.99998H3.5918C3.78223 7.99998 3.95215 7.87811 4.02539 7.69373L4.95703 5.30936C5.03027 5.12498 5.19727 5.00311 5.38184 5.00311C5.56641 5.00311 5.73926 5.11561 5.81543 5.29686L7.52051 9.33748L8.95312 6.27811C9.03223 6.10936 9.19629 6.00311 9.37207 6.00311C9.54785 6.00311 9.71191 6.10936 9.79102 6.27811L10.4707 7.72498C10.5498 7.89373 10.7109 7.99998 10.8896 7.99998H12.9023C13.3447 7.43123 13.5908 6.71248 13.5908 5.96561V5.78436C13.5908 4.33436 12.6064 3.09686 11.2676 2.85936C10.3828 2.70311 9.47754 3.00936 8.84473 3.68748L8.49316 4.06248L7.5 5.12186ZM13.3594 8.99998H11.9355H10.8926C10.3594 8.99998 9.87305 8.67811 9.63574 8.17186L9.375 7.61873L7.91894 10.725C7.83691 10.8969 7.66992 11.0062 7.49121 11C7.3125 10.9937 7.14844 10.8812 7.07227 10.7062L5.4082 6.75623L4.89258 8.07811C4.67285 8.63436 4.16016 8.99998 3.59473 8.99998H3.06738H1.64062H1.0459C0.375 8.15936 0 7.08436 0 5.96561V5.78436C0 3.59998 1.47949 1.73748 3.49805 1.37811C4.83398 1.14061 6.19336 1.60623 7.14844 2.62498L7.5 2.99998L7.85156 2.62498C8.80664 1.60623 10.166 1.14061 11.502 1.37811C13.5205 1.73748 15 3.59998 15 5.78436V5.96561C15 7.08436 14.625 8.15623 13.9541 8.99998H13.3594ZM2.00977 9.99998H4.06934L7.5 13.4156L10.9307 9.99998H12.9902L8.31152 14.6594C8.0918 14.8781 7.80176 15 7.5 15C7.19824 15 6.9082 14.8781 6.68848 14.6594L2.00977 9.99998Z" fill="white"/>
</svg>
