<svg width="62" height="62" viewBox="0 0 62 62" fill="none" xmlns="http://www.w3.org/2000/svg">
<path d="M7.75 7.75C5.60664 7.75 3.875 9.48164 3.875 11.625V39.8883L12.073 31.6902C13.9621 29.8012 17.0258 29.8012 18.927 31.6902L27.125 39.8883L43.073 23.9402C44.9621 22.0512 48.0258 22.0512 49.927 23.9402L58.125 32.1383V11.625C58.125 9.48164 56.3934 7.75 54.25 7.75H7.75ZM3.875 45.3617V50.375C3.875 52.5184 5.60664 54.25 7.75 54.25H12.7633L24.3883 42.625L16.1902 34.427C15.8148 34.0516 15.1973 34.0516 14.8219 34.427L3.875 45.3617ZM47.1902 26.677C46.8148 26.3016 46.1973 26.3016 45.8219 26.677L18.2367 54.25H54.25C56.3934 54.25 58.125 52.5184 58.125 50.375V37.6117L47.1902 26.677ZM0 11.625C0 7.35039 3.47539 3.875 7.75 3.875H54.25C58.5246 3.875 62 7.35039 62 11.625V50.375C62 54.6496 58.5246 58.125 54.25 58.125H7.75C3.47539 58.125 0 54.6496 0 50.375V11.625ZM19.375 17.4375C19.375 16.9236 19.1709 16.4308 18.8075 16.0675C18.4442 15.7041 17.9514 15.5 17.4375 15.5C16.9236 15.5 16.4308 15.7041 16.0675 16.0675C15.7041 16.4308 15.5 16.9236 15.5 17.4375C15.5 17.9514 15.7041 18.4442 16.0675 18.8075C16.4308 19.1709 16.9236 19.375 17.4375 19.375C17.9514 19.375 18.4442 19.1709 18.8075 18.8075C19.1709 18.4442 19.375 17.9514 19.375 17.4375ZM11.625 17.4375C11.625 15.8959 12.2374 14.4175 13.3274 13.3274C14.4175 12.2374 15.8959 11.625 17.4375 11.625C18.9791 11.625 20.4575 12.2374 21.5476 13.3274C22.6376 14.4175 23.25 15.8959 23.25 17.4375C23.25 18.9791 22.6376 20.4575 21.5476 21.5476C20.4575 22.6376 18.9791 23.25 17.4375 23.25C15.8959 23.25 14.4175 22.6376 13.3274 21.5476C12.2374 20.4575 11.625 18.9791 11.625 17.4375Z" fill="#D4CFCC"/>
</svg>
