<svg width="19" height="19" viewBox="0 0 19 19" fill="none" xmlns="http://www.w3.org/2000/svg">
<g clip-path="url(#clip0_1343_8092)">
<path d="M0 2.375C0 1.06504 1.06504 0 2.375 0H16.625C17.935 0 19 1.06504 19 2.375V13.0625C19 14.3725 17.935 15.4375 16.625 15.4375H11.4779L6.8875 18.8812C6.70938 19.0148 6.46816 19.0371 6.26406 18.9369C6.05996 18.8367 5.9375 18.6326 5.9375 18.4062V15.4375H2.375C1.06504 15.4375 0 14.3725 0 13.0625V2.375ZM5.64062 5.34375C5.14707 5.34375 4.75 5.74082 4.75 6.23437C4.75 6.72793 5.14707 7.125 5.64062 7.125H13.3594C13.8529 7.125 14.25 6.72793 14.25 6.23437C14.25 5.74082 13.8529 5.34375 13.3594 5.34375H5.64062ZM5.64062 8.90625C5.14707 8.90625 4.75 9.30332 4.75 9.79687C4.75 10.2904 5.14707 10.6875 5.64062 10.6875H9.79688C10.2904 10.6875 10.6875 10.2904 10.6875 9.79687C10.6875 9.30332 10.2904 8.90625 9.79688 8.90625H5.64062Z" fill="#F76D00"/>
</g>
<defs>
<clipPath id="clip0_1343_8092">
<rect width="19" height="19" fill="white"/>
</clipPath>
</defs>
</svg>
