<svg width="16" height="16" viewBox="0 0 16 16" fill="none" xmlns="http://www.w3.org/2000/svg">
<path d="M14 3H12V2C12 0.895313 11.1047 0 10 0H6C4.89687 0 4 0.895313 4 2V3H2C0.895313 3 0 3.89687 0 5V13C0 14.1047 0.895313 15 2 15H14C15.1047 15 16 14.1047 16 13V5C16 3.89687 15.1031 3 14 3ZM5.5 2C5.5 1.72381 5.72388 1.5 6 1.5H10C10.2761 1.5 10.5 1.72381 10.5 2V3H5.5V2ZM14.5 13C14.5 13.275 14.275 13.5 14 13.5H2C1.72497 13.5 1.5 13.275 1.5 13V5C1.5 4.72497 1.72497 4.5 2 4.5H14C14.275 4.5 14.5 4.72497 14.5 5V13ZM10.5 8H9V6.5C9 6.225 8.775 6 8.5 6H7.5C7.225 6 7 6.225 7 6.5V8H5.5C5.225 8 5 8.225 5 8.5V9.5C5 9.775 5.225 10 5.5 10H7V11.5C7 11.775 7.225 12 7.5 12H8.5C8.77612 12 9 11.7761 9 11.5V10H10.5C10.7761 10 11 9.77612 11 9.5V8.5C11 8.225 10.775 8 10.5 8Z" fill="white"/>
</svg>
