<svg width="14" height="16" viewBox="0 0 14 16" fill="none" xmlns="http://www.w3.org/2000/svg">
<g clip-path="url(#clip0_1271_443)">
<path d="M12 14.5H4C3.725 14.5 3.5 14.275 3.5 14V11H2V14C2 15.1031 2.89687 16 4 16H12C13.1031 16 14 15.1031 14 14V4.82812C14 4.29688 13.7906 3.7875 13.4156 3.4125L10.5844 0.584375C10.2094 0.209375 9.70312 0 9.17188 0H4C2.89687 0 2 0.896875 2 2V7.5H3.5V2C3.5 1.725 3.725 1.5 4 1.5H9V4C9 4.55312 9.44687 5 10 5H12.5V14C12.5 14.275 12.275 14.5 12 14.5ZM8.65 7.12813C8.5125 6.8875 8.25313 6.74375 7.97813 6.75C7.70312 6.75625 7.45312 6.91563 7.32812 7.16563L5.90625 10.0094L5.125 8.83438C4.98438 8.625 4.75 8.5 4.5 8.5H0.75C0.334375 8.5 0 8.83438 0 9.25C0 9.66562 0.334375 10 0.75 10H4.1L5.375 11.9156C5.52187 12.1375 5.77812 12.2656 6.04688 12.2469C6.31563 12.2281 6.55 12.0719 6.67188 11.8344L8.04375 9.0875L8.35 9.62187C8.48438 9.85625 8.73125 10 9 10H10.25C10.6656 10 11 9.66562 11 9.25C11 8.83438 10.6656 8.5 10.25 8.5H9.43437L8.65 7.12813Z" fill="white"/>
</g>
<defs>
<clipPath id="clip0_1271_443">
<rect width="14" height="16" fill="white"/>
</clipPath>
</defs>
</svg>
