<svg width="14" height="14" viewBox="0 0 14 14" fill="none" xmlns="http://www.w3.org/2000/svg">
<path d="M12.25 2.33332H10.4417C10.1626 0.976254 8.9688 0.00175 7.58332 0H6.41664C5.03116 0.00175 3.83739 0.976254 3.55832 2.33332H1.75C1.42783 2.33332 1.16667 2.59448 1.16667 2.91665C1.16667 3.23881 1.42783 3.5 1.75 3.5H2.33332V11.0833C2.33526 12.6934 3.63997 13.9981 5.25 14H8.75C10.36 13.9981 11.6647 12.6934 11.6667 11.0833V3.5H12.25C12.5722 3.5 12.8333 3.23884 12.8333 2.91668C12.8333 2.59451 12.5722 2.33332 12.25 2.33332ZM6.41667 9.91668C6.41667 10.2388 6.15551 10.5 5.83335 10.5C5.51116 10.5 5.25 10.2388 5.25 9.91668V6.41668C5.25 6.09451 5.51116 5.83335 5.83332 5.83335C6.15548 5.83335 6.41664 6.09451 6.41664 6.41668V9.91668H6.41667ZM8.75 9.91668C8.75 10.2388 8.48884 10.5 8.16667 10.5C7.84451 10.5 7.58335 10.2388 7.58335 9.91668V6.41668C7.58335 6.09451 7.84451 5.83335 8.16667 5.83335C8.48884 5.83335 8.75 6.09451 8.75 6.41668V9.91668ZM4.76642 2.33332C5.01454 1.63466 5.67527 1.16755 6.41667 1.16665H7.58335C8.32475 1.16755 8.98548 1.63466 9.2336 2.33332H4.76642Z" fill="#F76D00"/>
</svg>
