<svg width="25" height="18" viewBox="0 0 25 18" fill="none" xmlns="http://www.w3.org/2000/svg">
<path d="M24.2535 2.28141C23.7938 2.04577 23.2391 2.07687 22.8147 2.3716L18.3529 5.46707C18.0382 5.68457 17.9622 6.11375 18.1819 6.42441C18.3637 6.73555 18.8325 6.80859 19.1493 6.59375L23.6111 3.5V14.4957L19.1493 11.4062C18.8339 11.1894 18.4019 11.2639 18.1823 11.5755C17.9626 11.8863 18.0385 12.3154 18.3532 12.5328L22.815 15.6257C23.0537 15.7909 23.3332 15.8743 23.6128 15.8743C23.8318 15.8743 24.052 15.8226 24.2543 15.7186C24.7135 15.4797 25 14.977 25 14.4613V3.5C25 2.98438 24.7135 2.52031 24.2535 2.28141ZM13.8889 0.75H2.77778C1.24349 0.75 0 1.98105 0 3.5V14.5C0 16.0189 1.24349 17.25 2.77778 17.25H13.8889C15.4232 17.25 16.6667 16.0189 16.6667 14.5V3.5C16.6667 1.98105 15.421 0.75 13.8889 0.75ZM15.2778 14.5C15.2778 15.258 14.6545 15.875 13.8889 15.875H2.77778C2.01215 15.875 1.38889 15.258 1.38889 14.5V3.5C1.38889 2.74203 2.01215 2.125 2.77778 2.125H13.8889C14.6545 2.125 15.2778 2.74203 15.2778 3.5V14.5Z" fill="#009DDD"/>
</svg>
