<svg width="22" height="14" viewBox="0 0 22 14" fill="none" xmlns="http://www.w3.org/2000/svg">
<path d="M0.216248 2.45924C0.216248 1.20704 1.29088 0.188965 2.61264 0.188965H12.1982C13.52 0.188965 14.5946 1.20704 14.5946 2.45924V11.5403C14.5946 12.7925 13.52 13.8106 12.1982 13.8106H2.61264C1.29088 13.8106 0.216248 12.7925 0.216248 11.5403V2.45924ZM21.151 1.4589C21.5404 1.65755 21.7838 2.04065 21.7838 2.45924V11.5403C21.7838 11.9589 21.5404 12.342 21.151 12.5407C20.7616 12.7393 20.2898 12.718 19.9191 12.4839L16.3245 10.2136L15.7928 9.87663V9.27005V4.72951V4.12292L16.3245 3.78592L19.9191 1.51565C20.2861 1.28508 20.7579 1.26025 21.151 1.4589Z" fill="white"/>
</svg>
