<svg width="21" height="21" viewBox="0 0 21 21" fill="none" xmlns="http://www.w3.org/2000/svg">
<g clip-path="url(#clip0_1940_11297)">
<path d="M10.5003 6.53164C9.67369 6.53253 8.86594 6.76631 8.17916 7.20345C7.49237 7.64058 6.95739 8.26142 6.64186 8.98749C6.32633 9.71355 6.24441 10.5122 6.40646 11.2825C6.56852 12.0528 6.96727 12.7602 7.55231 13.3151C8.13734 13.8701 8.88238 14.2477 9.69322 14.4003C10.5041 14.5528 11.3443 14.4735 12.1077 14.1723C12.8711 13.871 13.5234 13.3614 13.9821 12.7079C14.4407 12.0544 14.6852 11.2863 14.6846 10.5008C14.6829 9.4473 14.2413 8.43752 13.4567 7.69329C12.6722 6.94906 11.6088 6.53125 10.5003 6.53164ZM20.2715 3.47845C20.0588 2.96599 19.7375 2.50055 19.3276 2.11099C18.9177 1.72144 18.4279 1.41609 17.8887 1.21387C16.2431 0.596532 12.3252 0.735044 10.4995 0.735044C8.67375 0.735044 4.75975 0.59132 3.10953 1.21387C2.5703 1.41609 2.08054 1.72144 1.67064 2.11099C1.26074 2.50055 0.939432 2.96599 0.726655 3.47845C0.0778493 5.04228 0.222812 8.76941 0.222812 10.503C0.222812 12.2366 0.0786331 15.9593 0.730573 17.5231C0.94335 18.0356 1.26466 18.501 1.67456 18.8906C2.08446 19.2801 2.57422 19.5855 3.11345 19.7877C4.75897 20.4051 8.67688 20.2665 10.5034 20.2665C12.3299 20.2665 16.2424 20.4103 17.8926 19.7877C18.4318 19.5855 18.9216 19.2801 19.3315 18.8906C19.7414 18.501 20.0627 18.0356 20.2755 17.5231C20.9298 15.9593 20.7793 12.2322 20.7793 10.4986C20.7793 8.76494 20.9298 5.04228 20.2794 3.47845H20.2715ZM10.5003 16.6072C9.22946 16.6072 7.98718 16.249 6.93053 15.5781C5.87388 14.9071 5.05033 13.9534 4.564 12.8376C4.07768 11.7218 3.95044 10.494 4.19836 9.3095C4.44629 8.12497 5.05825 7.03692 5.95685 6.18293C6.85545 5.32893 8.00035 4.74736 9.24675 4.51174C10.4931 4.27612 11.7851 4.39705 12.9592 4.85923C14.1332 5.32141 15.1367 6.10408 15.8428 7.10827C16.5488 8.11246 16.9256 9.29306 16.9256 10.5008C16.9267 11.303 16.7612 12.0975 16.4386 12.8388C16.1161 13.5801 15.6429 14.2536 15.046 14.8208C14.4491 15.3881 13.7404 15.8378 12.9604 16.1444C12.1803 16.4509 11.3444 16.6082 10.5003 16.6072ZM17.1905 5.56356C16.8938 5.5637 16.6038 5.48024 16.3571 5.32371C16.1103 5.16718 15.918 4.94463 15.8043 4.6842C15.6907 4.42377 15.6609 4.13716 15.7187 3.86063C15.7764 3.58409 15.9192 3.33006 16.1289 3.13065C16.3386 2.93124 16.6059 2.79541 16.8968 2.74036C17.1878 2.6853 17.4894 2.71348 17.7635 2.82134C18.0376 2.9292 18.2718 3.11189 18.4367 3.34629C18.6015 3.5807 18.6895 3.8563 18.6895 4.13824C18.6899 4.32533 18.6515 4.51067 18.5764 4.68363C18.5013 4.85659 18.3911 5.01377 18.252 5.14617C18.1129 5.27858 17.9476 5.3836 17.7658 5.45522C17.5839 5.52684 17.3889 5.56366 17.1921 5.56356H17.1905Z" fill="#271100"/>
</g>
<defs>
<clipPath id="clip0_1940_11297">
<rect width="21" height="21" fill="white"/>
</clipPath>
</defs>
</svg>
