<svg width="18" height="21" viewBox="0 0 18 21" fill="none" xmlns="http://www.w3.org/2000/svg">
<path d="M4.02911 18.3746H0.297321V6.10682H4.02911V18.3746ZM2.16121 4.43338C0.967902 4.43338 0 3.42439 0 2.20623C8.54116e-09 1.6211 0.227698 1.05994 0.633002 0.64619C1.03831 0.232441 1.58802 0 2.16121 0C2.73439 0 3.2841 0.232441 3.68941 0.64619C4.09471 1.05994 4.32241 1.6211 4.32241 2.20623C4.32241 3.42439 3.35411 4.43338 2.16121 4.43338ZM17.996 18.3746H14.2722V12.4027C14.2722 10.9795 14.2441 9.15428 12.332 9.15428C10.3918 9.15428 10.0945 10.7006 10.0945 12.3002V18.3746H6.3667V6.10682H9.9458V7.78025H9.99804C10.4963 6.81639 11.7133 5.7992 13.5289 5.7992C17.3057 5.7992 18 8.33807 18 11.6357V18.3746H17.996Z" fill="#271100"/>
</svg>
