<svg width="22" height="21" viewBox="0 0 22 21" fill="none" xmlns="http://www.w3.org/2000/svg">
<path d="M19.7386 6.22327C19.7525 6.40981 19.7525 6.59639 19.7525 6.78293C19.7525 12.4726 15.2157 19.0285 6.92385 19.0285C4.36928 19.0285 1.9962 18.3222 0 17.0964C0.362957 17.1363 0.711906 17.1497 1.08883 17.1497C3.19666 17.1497 5.13704 16.4701 6.68654 15.3109C4.7043 15.2709 3.04313 14.0317 2.47079 12.3261C2.75 12.366 3.02917 12.3927 3.32234 12.3927C3.72715 12.3927 4.132 12.3394 4.50888 12.2461C2.4429 11.8463 0.893363 10.1141 0.893363 8.02213V7.96885C1.49359 8.28865 2.19162 8.48852 2.93141 8.51514C1.71695 7.74228 0.921293 6.42314 0.921293 4.93074C0.921293 4.13127 1.1446 3.3984 1.53549 2.7588C3.75504 5.37047 7.09135 7.07603 10.8324 7.26261C10.7626 6.94281 10.7207 6.60972 10.7207 6.27659C10.7207 3.90474 12.7309 1.97266 15.2296 1.97266C16.5278 1.97266 17.7004 2.49232 18.524 3.33179C19.543 3.14525 20.5202 2.78546 21.3857 2.29246C21.0506 3.29184 20.3387 4.13131 19.4035 4.66427C20.3109 4.57104 21.1903 4.33114 21.9999 3.99805C21.3858 4.8508 20.618 5.61029 19.7386 6.22327Z" fill="#271100"/>
</svg>
