<svg width="24" height="21" viewBox="0 0 24 21" fill="none" xmlns="http://www.w3.org/2000/svg">
<path d="M22.9022 5.08934C22.6404 4.11932 21.8694 3.35537 20.8903 3.09611C19.1157 2.625 11.9999 2.625 11.9999 2.625C11.9999 2.625 4.88403 2.625 3.1094 3.09611C2.13036 3.35541 1.35928 4.11932 1.09757 5.08934C0.62207 6.84756 0.62207 10.5159 0.62207 10.5159C0.62207 10.5159 0.62207 14.1843 1.09757 15.9425C1.35928 16.9125 2.13036 17.6446 3.1094 17.9039C4.88403 18.375 11.9999 18.375 11.9999 18.375C11.9999 18.375 19.1157 18.375 20.8903 17.9039C21.8694 17.6446 22.6404 16.9125 22.9022 15.9425C23.3777 14.1843 23.3777 10.5159 23.3777 10.5159C23.3777 10.5159 23.3777 6.84756 22.9022 5.08934ZM9.67257 13.8465V7.18532L15.62 10.516L9.67257 13.8465Z" fill="#271100"/>
</svg>
