<svg width="20" height="22" viewBox="0 0 20 22" fill="none" xmlns="http://www.w3.org/2000/svg">
<path d="M20 11C20 10.6219 19.6696 10.3125 19.2589 10.3125H2.4156L8.69685 3.89726C8.97171 3.61663 8.9493 3.1814 8.64694 2.9266C8.50444 2.81015 8.32587 2.75 8.14729 2.75C7.94618 2.75 7.74511 2.82519 7.59908 2.97558L0.192833 10.5381C-0.0639523 10.7999 -0.0639523 11.2002 0.192833 11.4619L7.59908 19.0244C7.87542 19.3064 8.34417 19.3252 8.64596 19.0714C8.94832 18.8163 8.97073 18.3813 8.69587 18.1008L2.4156 11.6875H19.2593C19.6696 11.6875 20 11.3781 20 11Z" fill="#271100"/>
</svg>
