<svg width="16" height="21" viewBox="0 0 16 21" fill="none" xmlns="http://www.w3.org/2000/svg">
<g clip-path="url(#clip0_1274_661)">
<path d="M2.66667 0C1.19583 0 0 1.17715 0 2.625V18.375C0 19.8229 1.19583 21 2.66667 21H13.3333C14.8042 21 16 19.8229 16 18.375V6.5625H10.6667C9.92917 6.5625 9.33333 5.97598 9.33333 5.25V0H2.66667ZM10.6667 0V5.25H16L10.6667 0ZM6.66667 9.84375C6.66667 9.48281 6.96667 9.1875 7.33333 9.1875H8.66667C9.03333 9.1875 9.33333 9.48281 9.33333 9.84375V11.8125H11.3333C11.7 11.8125 12 12.1078 12 12.4688V13.7812C12 14.1422 11.7 14.4375 11.3333 14.4375H9.33333V16.4062C9.33333 16.7672 9.03333 17.0625 8.66667 17.0625H7.33333C6.96667 17.0625 6.66667 16.7672 6.66667 16.4062V14.4375H4.66667C4.3 14.4375 4 14.1422 4 13.7812V12.4688C4 12.1078 4.3 11.8125 4.66667 11.8125H6.66667V9.84375Z" fill="#958070"/>
<path d="M1.33334 7.875H14.6667V18.375H1.33334V7.875Z" fill="#958070"/>
</g>
<defs>
<clipPath id="clip0_1274_661">
<rect width="16" height="21" fill="white"/>
</clipPath>
</defs>
</svg>
