<svg width="19" height="19" viewBox="0 0 19 19" fill="none" xmlns="http://www.w3.org/2000/svg">
<g id="arrow-rotate-right-solid 1">
<path id="Vector" d="M14.3353 5.93751H12.4687C11.8119 5.93751 11.2812 6.46818 11.2812 7.12501C11.2812 7.78185 11.8119 8.31251 12.4687 8.31251H17.2187C17.8755 8.31251 18.4062 7.78185 18.4062 7.12501V2.37501C18.4062 1.71818 17.8755 1.18751 17.2187 1.18751C16.5619 1.18751 16.0312 1.71818 16.0312 2.37501V4.27501L15.3781 3.62189C12.131 0.374817 6.8689 0.374817 3.62183 3.62189C0.374756 6.86896 0.374756 12.1311 3.62183 15.3781C6.8689 18.6252 12.131 18.6252 15.3781 15.3781C15.8419 14.9143 15.8419 14.1609 15.3781 13.6971C14.9142 13.2332 14.1609 13.2332 13.697 13.6971C11.3777 16.0164 7.61851 16.0164 5.29917 13.6971C2.97983 11.3777 2.97983 7.61857 5.29917 5.29923C7.61851 2.9799 11.3777 2.9799 13.697 5.29923L14.3353 5.93751Z" fill="#F76D00"/>
</g>
</svg>
